<svg xmlns="http://www.w3.org/2000/svg" width="244.031" height="47" viewBox="0 0 244.031 47">
  <defs><style>.st-logo {fill: #fff;}</style></defs>
  <path class="st-logo" d="M362.366,84.737c-5.893,0-17.033-3.558-17.033-17.02,0-5.252,1.538-9.463,4.571-12.522a18.562,18.562,0,0,1,13.025-4.986,31.55,31.55,0,0,1,9.612,1.72l0.1,0.034-1.027,7.383-0.175-.056a26.839,26.839,0,0,0-7.676-1.637c-2.877,0-4.95.831-6.338,2.54s-2.057,4.25-2.057,7.776c0,8.886,6.258,9.338,7.511,9.338a4.479,4.479,0,0,0,1.84-.339V66.011l9.28,0V82.7l-0.085.03a37.56,37.56,0,0,1-11.548,2M325.552,71.953l3.56-10.815,3.559,10.815h-7.119ZM345.7,83.81L333.9,51.09h-9.574l-11.8,32.72,9.711-.005,1.632-5.05h10.492l1.633,5.05ZM296.958,83.8l-2.627-10.592c-0.258-1.042-1.454-6.158-1.845-7.87-0.386,1.7-1.562,6.738-1.845,7.87L288.013,83.8h-10L269.49,51.09h9.453l2.941,13.02c0.256,1.121,1.31,6.08,1.672,7.823,0.366-1.738,1.416-6.681,1.674-7.823l2.941-13.02H296.8l2.945,13.02c0.254,1.121,1.308,6.08,1.671,7.823,0.365-1.74,1.416-6.685,1.672-7.823l2.946-13.02h9.446L306.962,83.8h-10ZM252.3,71.953l3.556-10.815,3.559,10.815H252.3ZM272.447,83.81l-11.8-32.72h-9.575l-11.8,32.72,9.709-.005,1.633-5.05H261.1l1.633,5.05ZM225.256,83.8V58.921h-7.47V51.09H242.3v7.831h-7.36V83.8h-9.682Zm-21.37.964c-0.5,0-1.012-.013-1.532-0.035a50.947,50.947,0,0,1-10.383-2.1l-0.1-.033,1.057-7.488,0.14,0.04c5.129,1.5,8.571,2.263,10.225,2.263,1.162,0,3.887-.251,4.1-2.591,0.189-2.082-1.243-2.652-3.226-3.435L200.9,70.1c-3.809-1.483-9.025-3.512-9.025-9.678a9.16,9.16,0,0,1,2.474-6.692c2.85-2.895,7.574-3.5,11.036-3.5a27.188,27.188,0,0,1,9.51,1.659l0.1,0.037-1.056,7.174-0.179-.054a29.058,29.058,0,0,0-8.123-1.556c-2.436,0-3.659.675-3.738,2.068-0.1,1.793,1.705,2.581,4.078,3.425l1.8,0.627c3.81,1.339,9.567,3.363,9.567,10.181a10.362,10.362,0,0,1-2.726,7.619c-2.231,2.235-5.838,3.365-10.721,3.365h0ZM148.5,84.7a1.26,1.26,0,0,1-.4-0.083,48.476,48.476,0,0,1-9.513-4.128c-6.148-3.581-9.106-7.774-8.552-12.125,1.468-11.518,23.6-21.443,30.354-24.211,0.028-.011.057-0.021,0.083-0.034a1.12,1.12,0,0,1,.416-0.113,0.47,0.47,0,0,1,.355.161,0.571,0.571,0,0,1,.054.7l-0.175.272c-3.87,6.038-10.7,17.442-12.944,25.965-0.591,2.222-1.706,7.9.675,12.656a0.66,0.66,0,0,1,.064.681,0.467,0.467,0,0,1-.421.258m1.044,6.288a0.481,0.481,0,0,1-.359-0.158,0.571,0.571,0,0,1-.052-0.7l0.171-.266c3.87-6.039,10.7-17.442,12.949-25.973,0.589-2.222,1.7-7.9-.675-12.655a0.659,0.659,0,0,1-.064-0.682,0.469,0.469,0,0,1,.42-0.261,1.283,1.283,0,0,1,.4.086,48.385,48.385,0,0,1,9.512,4.13c6.149,3.581,9.106,7.774,8.552,12.125-1.466,11.518-23.6,21.442-30.354,24.209-0.028.013-.055,0.025-0.084,0.035a1.078,1.078,0,0,1-.411.111" transform="translate(-129.969 -44)"/>
</svg>
